<?xml version="1.0" encoding="UTF-8" standalone="no"?>
<!DOCTYPE svg PUBLIC "-//W3C//DTD SVG 1.1//EN"
 "http://www.w3.org/Graphics/SVG/1.1/DTD/svg11.dtd">
<!-- Generated by graphviz version 2.43.0 (0)
 -->
<!-- Title: Tree Pages: 1 -->
<svg width="682pt" height="552pt"
 viewBox="0.00 0.00 682.00 552.00" xmlns="http://www.w3.org/2000/svg" xmlns:xlink="http://www.w3.org/1999/xlink">
<g id="graph0" class="graph" transform="scale(1 1) rotate(0) translate(4 548)">
<title>Tree</title>
<polygon fill="white" stroke="transparent" points="-4,4 -4,-548 678,-548 678,4 -4,4"/>
<!-- 0 -->
<g id="node1" class="node">
<title>0</title>
<polygon fill="#f6f1fd" stroke="black" points="330,-544 130,-544 130,-461 330,-461 330,-544"/>
<text text-anchor="middle" x="230" y="-528.8" font-family="Helvetica,sans-Serif" font-size="14.00">petal length (cm) &lt;= 2.45</text>
<text text-anchor="middle" x="230" y="-513.8" font-family="Helvetica,sans-Serif" font-size="14.00">gini = 0.665</text>
<text text-anchor="middle" x="230" y="-498.8" font-family="Helvetica,sans-Serif" font-size="14.00">samples = 120</text>
<text text-anchor="middle" x="230" y="-483.8" font-family="Helvetica,sans-Serif" font-size="14.00">value = [38, 38, 44]</text>
<text text-anchor="middle" x="230" y="-468.8" font-family="Helvetica,sans-Serif" font-size="14.00">class = virginica</text>
</g>
<!-- 1 -->
<g id="node2" class="node">
<title>1</title>
<polygon fill="#e58139" stroke="black" points="208,-417.5 68,-417.5 68,-349.5 208,-349.5 208,-417.5"/>
<text text-anchor="middle" x="138" y="-402.3" font-family="Helvetica,sans-Serif" font-size="14.00">gini = 0.0</text>
<text text-anchor="middle" x="138" y="-387.3" font-family="Helvetica,sans-Serif" font-size="14.00">samples = 38</text>
<text text-anchor="middle" x="138" y="-372.3" font-family="Helvetica,sans-Serif" font-size="14.00">value = [38, 0, 0]</text>
<text text-anchor="middle" x="138" y="-357.3" font-family="Helvetica,sans-Serif" font-size="14.00">class = setosa</text>
</g>
<!-- 0&#45;&gt;1 -->
<g id="edge1" class="edge">
<title>0&#45;&gt;1</title>
<path fill="none" stroke="black" d="M198.08,-460.91C189.14,-449.54 179.42,-437.18 170.45,-425.77"/>
<polygon fill="black" stroke="black" points="173.01,-423.36 164.08,-417.67 167.51,-427.69 173.01,-423.36"/>
<text text-anchor="middle" x="161.11" y="-438.79" font-family="Helvetica,sans-Serif" font-size="14.00">True</text>
</g>
<!-- 2 -->
<g id="node3" class="node">
<title>2</title>
<polygon fill="#eee4fb" stroke="black" points="420,-425 226,-425 226,-342 420,-342 420,-425"/>
<text text-anchor="middle" x="323" y="-409.8" font-family="Helvetica,sans-Serif" font-size="14.00">petal width (cm) &lt;= 1.55</text>
<text text-anchor="middle" x="323" y="-394.8" font-family="Helvetica,sans-Serif" font-size="14.00">gini = 0.497</text>
<text text-anchor="middle" x="323" y="-379.8" font-family="Helvetica,sans-Serif" font-size="14.00">samples = 82</text>
<text text-anchor="middle" x="323" y="-364.8" font-family="Helvetica,sans-Serif" font-size="14.00">value = [0, 38, 44]</text>
<text text-anchor="middle" x="323" y="-349.8" font-family="Helvetica,sans-Serif" font-size="14.00">class = virginica</text>
</g>
<!-- 0&#45;&gt;2 -->
<g id="edge2" class="edge">
<title>0&#45;&gt;2</title>
<path fill="none" stroke="black" d="M262.27,-460.91C269.41,-451.92 277.04,-442.32 284.41,-433.05"/>
<polygon fill="black" stroke="black" points="287.31,-435.03 290.79,-425.02 281.83,-430.67 287.31,-435.03"/>
<text text-anchor="middle" x="293.63" y="-446.16" font-family="Helvetica,sans-Serif" font-size="14.00">False</text>
</g>
<!-- 3 -->
<g id="node4" class="node">
<title>3</title>
<polygon fill="#44e688" stroke="black" points="314,-306 114,-306 114,-223 314,-223 314,-306"/>
<text text-anchor="middle" x="214" y="-290.8" font-family="Helvetica,sans-Serif" font-size="14.00">petal length (cm) &lt;= 4.95</text>
<text text-anchor="middle" x="214" y="-275.8" font-family="Helvetica,sans-Serif" font-size="14.00">gini = 0.097</text>
<text text-anchor="middle" x="214" y="-260.8" font-family="Helvetica,sans-Serif" font-size="14.00">samples = 39</text>
<text text-anchor="middle" x="214" y="-245.8" font-family="Helvetica,sans-Serif" font-size="14.00">value = [0, 37, 2]</text>
<text text-anchor="middle" x="214" y="-230.8" font-family="Helvetica,sans-Serif" font-size="14.00">class = versicolor</text>
</g>
<!-- 2&#45;&gt;3 -->
<g id="edge3" class="edge">
<title>2&#45;&gt;3</title>
<path fill="none" stroke="black" d="M285.18,-341.91C276.64,-332.74 267.5,-322.93 258.71,-313.49"/>
<polygon fill="black" stroke="black" points="261.13,-310.95 251.75,-306.02 256.01,-315.72 261.13,-310.95"/>
</g>
<!-- 6 -->
<g id="node7" class="node">
<title>6</title>
<polygon fill="#843ee6" stroke="black" points="532,-306 332,-306 332,-223 532,-223 532,-306"/>
<text text-anchor="middle" x="432" y="-290.8" font-family="Helvetica,sans-Serif" font-size="14.00">petal length (cm) &lt;= 4.85</text>
<text text-anchor="middle" x="432" y="-275.8" font-family="Helvetica,sans-Serif" font-size="14.00">gini = 0.045</text>
<text text-anchor="middle" x="432" y="-260.8" font-family="Helvetica,sans-Serif" font-size="14.00">samples = 43</text>
<text text-anchor="middle" x="432" y="-245.8" font-family="Helvetica,sans-Serif" font-size="14.00">value = [0, 1, 42]</text>
<text text-anchor="middle" x="432" y="-230.8" font-family="Helvetica,sans-Serif" font-size="14.00">class = virginica</text>
</g>
<!-- 2&#45;&gt;6 -->
<g id="edge6" class="edge">
<title>2&#45;&gt;6</title>
<path fill="none" stroke="black" d="M360.82,-341.91C369.36,-332.74 378.5,-322.93 387.29,-313.49"/>
<polygon fill="black" stroke="black" points="389.99,-315.72 394.25,-306.02 384.87,-310.95 389.99,-315.72"/>
</g>
<!-- 4 -->
<g id="node5" class="node">
<title>4</title>
<polygon fill="#39e581" stroke="black" points="140,-179.5 0,-179.5 0,-111.5 140,-111.5 140,-179.5"/>
<text text-anchor="middle" x="70" y="-164.3" font-family="Helvetica,sans-Serif" font-size="14.00">gini = 0.0</text>
<text text-anchor="middle" x="70" y="-149.3" font-family="Helvetica,sans-Serif" font-size="14.00">samples = 37</text>
<text text-anchor="middle" x="70" y="-134.3" font-family="Helvetica,sans-Serif" font-size="14.00">value = [0, 37, 0]</text>
<text text-anchor="middle" x="70" y="-119.3" font-family="Helvetica,sans-Serif" font-size="14.00">class = versicolor</text>
</g>
<!-- 3&#45;&gt;4 -->
<g id="edge4" class="edge">
<title>3&#45;&gt;4</title>
<path fill="none" stroke="black" d="M164.04,-222.91C149.37,-210.99 133.35,-197.98 118.76,-186.12"/>
<polygon fill="black" stroke="black" points="120.79,-183.26 110.82,-179.67 116.37,-188.69 120.79,-183.26"/>
</g>
<!-- 5 -->
<g id="node6" class="node">
<title>5</title>
<polygon fill="#8139e5" stroke="black" points="289.5,-179.5 158.5,-179.5 158.5,-111.5 289.5,-111.5 289.5,-179.5"/>
<text text-anchor="middle" x="224" y="-164.3" font-family="Helvetica,sans-Serif" font-size="14.00">gini = 0.0</text>
<text text-anchor="middle" x="224" y="-149.3" font-family="Helvetica,sans-Serif" font-size="14.00">samples = 2</text>
<text text-anchor="middle" x="224" y="-134.3" font-family="Helvetica,sans-Serif" font-size="14.00">value = [0, 0, 2]</text>
<text text-anchor="middle" x="224" y="-119.3" font-family="Helvetica,sans-Serif" font-size="14.00">class = virginica</text>
</g>
<!-- 3&#45;&gt;5 -->
<g id="edge5" class="edge">
<title>3&#45;&gt;5</title>
<path fill="none" stroke="black" d="M217.47,-222.91C218.38,-212.2 219.37,-200.62 220.3,-189.78"/>
<polygon fill="black" stroke="black" points="223.8,-189.93 221.17,-179.67 216.83,-189.33 223.8,-189.93"/>
</g>
<!-- 7 -->
<g id="node8" class="node">
<title>7</title>
<polygon fill="#c09cf2" stroke="black" points="516,-187 328,-187 328,-104 516,-104 516,-187"/>
<text text-anchor="middle" x="422" y="-171.8" font-family="Helvetica,sans-Serif" font-size="14.00">sepal width (cm) &lt;= 3.1</text>
<text text-anchor="middle" x="422" y="-156.8" font-family="Helvetica,sans-Serif" font-size="14.00">gini = 0.444</text>
<text text-anchor="middle" x="422" y="-141.8" font-family="Helvetica,sans-Serif" font-size="14.00">samples = 3</text>
<text text-anchor="middle" x="422" y="-126.8" font-family="Helvetica,sans-Serif" font-size="14.00">value = [0, 1, 2]</text>
<text text-anchor="middle" x="422" y="-111.8" font-family="Helvetica,sans-Serif" font-size="14.00">class = virginica</text>
</g>
<!-- 6&#45;&gt;7 -->
<g id="edge7" class="edge">
<title>6&#45;&gt;7</title>
<path fill="none" stroke="black" d="M428.53,-222.91C427.82,-214.56 427.06,-205.67 426.32,-197.02"/>
<polygon fill="black" stroke="black" points="429.8,-196.69 425.46,-187.02 422.83,-197.28 429.8,-196.69"/>
</g>
<!-- 10 -->
<g id="node11" class="node">
<title>10</title>
<polygon fill="#8139e5" stroke="black" points="674,-179.5 534,-179.5 534,-111.5 674,-111.5 674,-179.5"/>
<text text-anchor="middle" x="604" y="-164.3" font-family="Helvetica,sans-Serif" font-size="14.00">gini = 0.0</text>
<text text-anchor="middle" x="604" y="-149.3" font-family="Helvetica,sans-Serif" font-size="14.00">samples = 40</text>
<text text-anchor="middle" x="604" y="-134.3" font-family="Helvetica,sans-Serif" font-size="14.00">value = [0, 0, 40]</text>
<text text-anchor="middle" x="604" y="-119.3" font-family="Helvetica,sans-Serif" font-size="14.00">class = virginica</text>
</g>
<!-- 6&#45;&gt;10 -->
<g id="edge10" class="edge">
<title>6&#45;&gt;10</title>
<path fill="none" stroke="black" d="M491.67,-222.91C509.52,-210.77 529.04,-197.49 546.72,-185.46"/>
<polygon fill="black" stroke="black" points="548.94,-188.19 555.24,-179.67 545,-182.4 548.94,-188.19"/>
</g>
<!-- 8 -->
<g id="node9" class="node">
<title>8</title>
<polygon fill="#8139e5" stroke="black" points="410.5,-68 279.5,-68 279.5,0 410.5,0 410.5,-68"/>
<text text-anchor="middle" x="345" y="-52.8" font-family="Helvetica,sans-Serif" font-size="14.00">gini = 0.0</text>
<text text-anchor="middle" x="345" y="-37.8" font-family="Helvetica,sans-Serif" font-size="14.00">samples = 2</text>
<text text-anchor="middle" x="345" y="-22.8" font-family="Helvetica,sans-Serif" font-size="14.00">value = [0, 0, 2]</text>
<text text-anchor="middle" x="345" y="-7.8" font-family="Helvetica,sans-Serif" font-size="14.00">class = virginica</text>
</g>
<!-- 7&#45;&gt;8 -->
<g id="edge8" class="edge">
<title>7&#45;&gt;8</title>
<path fill="none" stroke="black" d="M393.33,-103.73C387.11,-94.88 380.52,-85.51 374.27,-76.63"/>
<polygon fill="black" stroke="black" points="377.03,-74.47 368.42,-68.3 371.31,-78.49 377.03,-74.47"/>
</g>
<!-- 9 -->
<g id="node10" class="node">
<title>9</title>
<polygon fill="#39e581" stroke="black" points="569,-68 429,-68 429,0 569,0 569,-68"/>
<text text-anchor="middle" x="499" y="-52.8" font-family="Helvetica,sans-Serif" font-size="14.00">gini = 0.0</text>
<text text-anchor="middle" x="499" y="-37.8" font-family="Helvetica,sans-Serif" font-size="14.00">samples = 1</text>
<text text-anchor="middle" x="499" y="-22.8" font-family="Helvetica,sans-Serif" font-size="14.00">value = [0, 1, 0]</text>
<text text-anchor="middle" x="499" y="-7.8" font-family="Helvetica,sans-Serif" font-size="14.00">class = versicolor</text>
</g>
<!-- 7&#45;&gt;9 -->
<g id="edge9" class="edge">
<title>7&#45;&gt;9</title>
<path fill="none" stroke="black" d="M450.67,-103.73C456.89,-94.88 463.48,-85.51 469.73,-76.63"/>
<polygon fill="black" stroke="black" points="472.69,-78.49 475.58,-68.3 466.97,-74.47 472.69,-78.49"/>
</g>
</g>
</svg>
