<?xml version="1.0" encoding="UTF-8" standalone="no"?>
<!DOCTYPE svg PUBLIC "-//W3C//DTD SVG 1.1//EN"
 "http://www.w3.org/Graphics/SVG/1.1/DTD/svg11.dtd">
<!-- Generated by graphviz version 2.43.0 (0)
 -->
<!-- Title: Tree Pages: 1 -->
<svg width="954pt" height="552pt"
 viewBox="0.00 0.00 953.50 552.00" xmlns="http://www.w3.org/2000/svg" xmlns:xlink="http://www.w3.org/1999/xlink">
<g id="graph0" class="graph" transform="scale(1 1) rotate(0) translate(4 548)">
<title>Tree</title>
<polygon fill="white" stroke="transparent" points="-4,4 -4,-548 949.5,-548 949.5,4 -4,4"/>
<!-- 0 -->
<g id="node1" class="node">
<title>0</title>
<polygon fill="#fafefc" stroke="black" points="572.5,-544 378.5,-544 378.5,-461 572.5,-461 572.5,-544"/>
<text text-anchor="middle" x="475.5" y="-528.8" font-family="Helvetica,sans-Serif" font-size="14.00">petal width (cm) &lt;= 0.75</text>
<text text-anchor="middle" x="475.5" y="-513.8" font-family="Helvetica,sans-Serif" font-size="14.00">gini = 0.665</text>
<text text-anchor="middle" x="475.5" y="-498.8" font-family="Helvetica,sans-Serif" font-size="14.00">samples = 120</text>
<text text-anchor="middle" x="475.5" y="-483.8" font-family="Helvetica,sans-Serif" font-size="14.00">value = [41, 43, 36]</text>
<text text-anchor="middle" x="475.5" y="-468.8" font-family="Helvetica,sans-Serif" font-size="14.00">class = versicolor</text>
</g>
<!-- 1 -->
<g id="node2" class="node">
<title>1</title>
<polygon fill="#e58139" stroke="black" points="453.5,-417.5 313.5,-417.5 313.5,-349.5 453.5,-349.5 453.5,-417.5"/>
<text text-anchor="middle" x="383.5" y="-402.3" font-family="Helvetica,sans-Serif" font-size="14.00">gini = 0.0</text>
<text text-anchor="middle" x="383.5" y="-387.3" font-family="Helvetica,sans-Serif" font-size="14.00">samples = 41</text>
<text text-anchor="middle" x="383.5" y="-372.3" font-family="Helvetica,sans-Serif" font-size="14.00">value = [41, 0, 0]</text>
<text text-anchor="middle" x="383.5" y="-357.3" font-family="Helvetica,sans-Serif" font-size="14.00">class = setosa</text>
</g>
<!-- 0&#45;&gt;1 -->
<g id="edge1" class="edge">
<title>0&#45;&gt;1</title>
<path fill="none" stroke="black" d="M443.58,-460.91C434.64,-449.54 424.92,-437.18 415.95,-425.77"/>
<polygon fill="black" stroke="black" points="418.51,-423.36 409.58,-417.67 413.01,-427.69 418.51,-423.36"/>
<text text-anchor="middle" x="406.61" y="-438.79" font-family="Helvetica,sans-Serif" font-size="14.00">True</text>
</g>
<!-- 2 -->
<g id="node3" class="node">
<title>2</title>
<polygon fill="#dffbea" stroke="black" points="665.5,-425 471.5,-425 471.5,-342 665.5,-342 665.5,-425"/>
<text text-anchor="middle" x="568.5" y="-409.8" font-family="Helvetica,sans-Serif" font-size="14.00">petal width (cm) &lt;= 1.75</text>
<text text-anchor="middle" x="568.5" y="-394.8" font-family="Helvetica,sans-Serif" font-size="14.00">gini = 0.496</text>
<text text-anchor="middle" x="568.5" y="-379.8" font-family="Helvetica,sans-Serif" font-size="14.00">samples = 79</text>
<text text-anchor="middle" x="568.5" y="-364.8" font-family="Helvetica,sans-Serif" font-size="14.00">value = [0, 43, 36]</text>
<text text-anchor="middle" x="568.5" y="-349.8" font-family="Helvetica,sans-Serif" font-size="14.00">class = versicolor</text>
</g>
<!-- 0&#45;&gt;2 -->
<g id="edge2" class="edge">
<title>0&#45;&gt;2</title>
<path fill="none" stroke="black" d="M507.77,-460.91C514.91,-451.92 522.54,-442.32 529.91,-433.05"/>
<polygon fill="black" stroke="black" points="532.81,-435.03 536.29,-425.02 527.33,-430.67 532.81,-435.03"/>
<text text-anchor="middle" x="539.13" y="-446.16" font-family="Helvetica,sans-Serif" font-size="14.00">False</text>
</g>
<!-- 3 -->
<g id="node4" class="node">
<title>3</title>
<polygon fill="#4ce78d" stroke="black" points="552.5,-306 352.5,-306 352.5,-223 552.5,-223 552.5,-306"/>
<text text-anchor="middle" x="452.5" y="-290.8" font-family="Helvetica,sans-Serif" font-size="14.00">petal length (cm) &lt;= 5.05</text>
<text text-anchor="middle" x="452.5" y="-275.8" font-family="Helvetica,sans-Serif" font-size="14.00">gini = 0.159</text>
<text text-anchor="middle" x="452.5" y="-260.8" font-family="Helvetica,sans-Serif" font-size="14.00">samples = 46</text>
<text text-anchor="middle" x="452.5" y="-245.8" font-family="Helvetica,sans-Serif" font-size="14.00">value = [0, 42, 4]</text>
<text text-anchor="middle" x="452.5" y="-230.8" font-family="Helvetica,sans-Serif" font-size="14.00">class = versicolor</text>
</g>
<!-- 2&#45;&gt;3 -->
<g id="edge3" class="edge">
<title>2&#45;&gt;3</title>
<path fill="none" stroke="black" d="M528.25,-341.91C519.08,-332.65 509.24,-322.73 499.8,-313.21"/>
<polygon fill="black" stroke="black" points="502.2,-310.66 492.67,-306.02 497.23,-315.59 502.2,-310.66"/>
</g>
<!-- 10 -->
<g id="node11" class="node">
<title>10</title>
<polygon fill="#853fe6" stroke="black" points="785.5,-306 585.5,-306 585.5,-223 785.5,-223 785.5,-306"/>
<text text-anchor="middle" x="685.5" y="-290.8" font-family="Helvetica,sans-Serif" font-size="14.00">petal length (cm) &lt;= 4.85</text>
<text text-anchor="middle" x="685.5" y="-275.8" font-family="Helvetica,sans-Serif" font-size="14.00">gini = 0.059</text>
<text text-anchor="middle" x="685.5" y="-260.8" font-family="Helvetica,sans-Serif" font-size="14.00">samples = 33</text>
<text text-anchor="middle" x="685.5" y="-245.8" font-family="Helvetica,sans-Serif" font-size="14.00">value = [0, 1, 32]</text>
<text text-anchor="middle" x="685.5" y="-230.8" font-family="Helvetica,sans-Serif" font-size="14.00">class = virginica</text>
</g>
<!-- 2&#45;&gt;10 -->
<g id="edge10" class="edge">
<title>2&#45;&gt;10</title>
<path fill="none" stroke="black" d="M609.09,-341.91C618.35,-332.65 628.27,-322.73 637.79,-313.21"/>
<polygon fill="black" stroke="black" points="640.38,-315.57 644.98,-306.02 635.43,-310.62 640.38,-315.57"/>
</g>
<!-- 4 -->
<g id="node5" class="node">
<title>4</title>
<polygon fill="#3ee684" stroke="black" points="321,-187 118,-187 118,-104 321,-104 321,-187"/>
<text text-anchor="middle" x="219.5" y="-171.8" font-family="Helvetica,sans-Serif" font-size="14.00">sepal length (cm) &lt;= 4.95</text>
<text text-anchor="middle" x="219.5" y="-156.8" font-family="Helvetica,sans-Serif" font-size="14.00">gini = 0.046</text>
<text text-anchor="middle" x="219.5" y="-141.8" font-family="Helvetica,sans-Serif" font-size="14.00">samples = 42</text>
<text text-anchor="middle" x="219.5" y="-126.8" font-family="Helvetica,sans-Serif" font-size="14.00">value = [0, 41, 1]</text>
<text text-anchor="middle" x="219.5" y="-111.8" font-family="Helvetica,sans-Serif" font-size="14.00">class = versicolor</text>
</g>
<!-- 3&#45;&gt;4 -->
<g id="edge4" class="edge">
<title>3&#45;&gt;4</title>
<path fill="none" stroke="black" d="M371.66,-222.91C351.51,-212.79 329.78,-201.88 309.23,-191.56"/>
<polygon fill="black" stroke="black" points="310.7,-188.38 300.2,-187.02 307.56,-194.64 310.7,-188.38"/>
</g>
<!-- 7 -->
<g id="node8" class="node">
<title>7</title>
<polygon fill="#ab7bee" stroke="black" points="554,-187 351,-187 351,-104 554,-104 554,-187"/>
<text text-anchor="middle" x="452.5" y="-171.8" font-family="Helvetica,sans-Serif" font-size="14.00">sepal length (cm) &lt;= 6.05</text>
<text text-anchor="middle" x="452.5" y="-156.8" font-family="Helvetica,sans-Serif" font-size="14.00">gini = 0.375</text>
<text text-anchor="middle" x="452.5" y="-141.8" font-family="Helvetica,sans-Serif" font-size="14.00">samples = 4</text>
<text text-anchor="middle" x="452.5" y="-126.8" font-family="Helvetica,sans-Serif" font-size="14.00">value = [0, 1, 3]</text>
<text text-anchor="middle" x="452.5" y="-111.8" font-family="Helvetica,sans-Serif" font-size="14.00">class = virginica</text>
</g>
<!-- 3&#45;&gt;7 -->
<g id="edge7" class="edge">
<title>3&#45;&gt;7</title>
<path fill="none" stroke="black" d="M452.5,-222.91C452.5,-214.65 452.5,-205.86 452.5,-197.3"/>
<polygon fill="black" stroke="black" points="456,-197.02 452.5,-187.02 449,-197.02 456,-197.02"/>
</g>
<!-- 5 -->
<g id="node6" class="node">
<title>5</title>
<polygon fill="#8139e5" stroke="black" points="131,-68 0,-68 0,0 131,0 131,-68"/>
<text text-anchor="middle" x="65.5" y="-52.8" font-family="Helvetica,sans-Serif" font-size="14.00">gini = 0.0</text>
<text text-anchor="middle" x="65.5" y="-37.8" font-family="Helvetica,sans-Serif" font-size="14.00">samples = 1</text>
<text text-anchor="middle" x="65.5" y="-22.8" font-family="Helvetica,sans-Serif" font-size="14.00">value = [0, 0, 1]</text>
<text text-anchor="middle" x="65.5" y="-7.8" font-family="Helvetica,sans-Serif" font-size="14.00">class = virginica</text>
</g>
<!-- 4&#45;&gt;5 -->
<g id="edge5" class="edge">
<title>4&#45;&gt;5</title>
<path fill="none" stroke="black" d="M162.16,-103.73C148.56,-94.06 134.09,-83.77 120.59,-74.17"/>
<polygon fill="black" stroke="black" points="122.51,-71.24 112.33,-68.3 118.45,-76.95 122.51,-71.24"/>
</g>
<!-- 6 -->
<g id="node7" class="node">
<title>6</title>
<polygon fill="#39e581" stroke="black" points="289.5,-68 149.5,-68 149.5,0 289.5,0 289.5,-68"/>
<text text-anchor="middle" x="219.5" y="-52.8" font-family="Helvetica,sans-Serif" font-size="14.00">gini = 0.0</text>
<text text-anchor="middle" x="219.5" y="-37.8" font-family="Helvetica,sans-Serif" font-size="14.00">samples = 41</text>
<text text-anchor="middle" x="219.5" y="-22.8" font-family="Helvetica,sans-Serif" font-size="14.00">value = [0, 41, 0]</text>
<text text-anchor="middle" x="219.5" y="-7.8" font-family="Helvetica,sans-Serif" font-size="14.00">class = versicolor</text>
</g>
<!-- 4&#45;&gt;6 -->
<g id="edge6" class="edge">
<title>4&#45;&gt;6</title>
<path fill="none" stroke="black" d="M219.5,-103.73C219.5,-95.52 219.5,-86.86 219.5,-78.56"/>
<polygon fill="black" stroke="black" points="223,-78.3 219.5,-68.3 216,-78.3 223,-78.3"/>
</g>
<!-- 8 -->
<g id="node9" class="node">
<title>8</title>
<polygon fill="#39e581" stroke="black" points="447.5,-68 307.5,-68 307.5,0 447.5,0 447.5,-68"/>
<text text-anchor="middle" x="377.5" y="-52.8" font-family="Helvetica,sans-Serif" font-size="14.00">gini = 0.0</text>
<text text-anchor="middle" x="377.5" y="-37.8" font-family="Helvetica,sans-Serif" font-size="14.00">samples = 1</text>
<text text-anchor="middle" x="377.5" y="-22.8" font-family="Helvetica,sans-Serif" font-size="14.00">value = [0, 1, 0]</text>
<text text-anchor="middle" x="377.5" y="-7.8" font-family="Helvetica,sans-Serif" font-size="14.00">class = versicolor</text>
</g>
<!-- 7&#45;&gt;8 -->
<g id="edge8" class="edge">
<title>7&#45;&gt;8</title>
<path fill="none" stroke="black" d="M424.57,-103.73C418.51,-94.88 412.1,-85.51 406.01,-76.63"/>
<polygon fill="black" stroke="black" points="408.85,-74.57 400.31,-68.3 403.07,-78.53 408.85,-74.57"/>
</g>
<!-- 9 -->
<g id="node10" class="node">
<title>9</title>
<polygon fill="#8139e5" stroke="black" points="597,-68 466,-68 466,0 597,0 597,-68"/>
<text text-anchor="middle" x="531.5" y="-52.8" font-family="Helvetica,sans-Serif" font-size="14.00">gini = 0.0</text>
<text text-anchor="middle" x="531.5" y="-37.8" font-family="Helvetica,sans-Serif" font-size="14.00">samples = 3</text>
<text text-anchor="middle" x="531.5" y="-22.8" font-family="Helvetica,sans-Serif" font-size="14.00">value = [0, 0, 3]</text>
<text text-anchor="middle" x="531.5" y="-7.8" font-family="Helvetica,sans-Serif" font-size="14.00">class = virginica</text>
</g>
<!-- 7&#45;&gt;9 -->
<g id="edge9" class="edge">
<title>7&#45;&gt;9</title>
<path fill="none" stroke="black" d="M481.92,-103.73C488.3,-94.88 495.06,-85.51 501.47,-76.63"/>
<polygon fill="black" stroke="black" points="504.46,-78.46 507.48,-68.3 498.79,-74.36 504.46,-78.46"/>
</g>
<!-- 11 -->
<g id="node12" class="node">
<title>11</title>
<polygon fill="#c09cf2" stroke="black" points="787,-187 584,-187 584,-104 787,-104 787,-187"/>
<text text-anchor="middle" x="685.5" y="-171.8" font-family="Helvetica,sans-Serif" font-size="14.00">sepal length (cm) &lt;= 5.95</text>
<text text-anchor="middle" x="685.5" y="-156.8" font-family="Helvetica,sans-Serif" font-size="14.00">gini = 0.444</text>
<text text-anchor="middle" x="685.5" y="-141.8" font-family="Helvetica,sans-Serif" font-size="14.00">samples = 3</text>
<text text-anchor="middle" x="685.5" y="-126.8" font-family="Helvetica,sans-Serif" font-size="14.00">value = [0, 1, 2]</text>
<text text-anchor="middle" x="685.5" y="-111.8" font-family="Helvetica,sans-Serif" font-size="14.00">class = virginica</text>
</g>
<!-- 10&#45;&gt;11 -->
<g id="edge11" class="edge">
<title>10&#45;&gt;11</title>
<path fill="none" stroke="black" d="M685.5,-222.91C685.5,-214.65 685.5,-205.86 685.5,-197.3"/>
<polygon fill="black" stroke="black" points="689,-197.02 685.5,-187.02 682,-197.02 689,-197.02"/>
</g>
<!-- 14 -->
<g id="node15" class="node">
<title>14</title>
<polygon fill="#8139e5" stroke="black" points="945.5,-179.5 805.5,-179.5 805.5,-111.5 945.5,-111.5 945.5,-179.5"/>
<text text-anchor="middle" x="875.5" y="-164.3" font-family="Helvetica,sans-Serif" font-size="14.00">gini = 0.0</text>
<text text-anchor="middle" x="875.5" y="-149.3" font-family="Helvetica,sans-Serif" font-size="14.00">samples = 30</text>
<text text-anchor="middle" x="875.5" y="-134.3" font-family="Helvetica,sans-Serif" font-size="14.00">value = [0, 0, 30]</text>
<text text-anchor="middle" x="875.5" y="-119.3" font-family="Helvetica,sans-Serif" font-size="14.00">class = virginica</text>
</g>
<!-- 10&#45;&gt;14 -->
<g id="edge14" class="edge">
<title>10&#45;&gt;14</title>
<path fill="none" stroke="black" d="M751.42,-222.91C771.4,-210.6 793.28,-197.13 813.03,-184.97"/>
<polygon fill="black" stroke="black" points="814.96,-187.89 821.64,-179.67 811.29,-181.93 814.96,-187.89"/>
</g>
<!-- 12 -->
<g id="node13" class="node">
<title>12</title>
<polygon fill="#39e581" stroke="black" points="755.5,-68 615.5,-68 615.5,0 755.5,0 755.5,-68"/>
<text text-anchor="middle" x="685.5" y="-52.8" font-family="Helvetica,sans-Serif" font-size="14.00">gini = 0.0</text>
<text text-anchor="middle" x="685.5" y="-37.8" font-family="Helvetica,sans-Serif" font-size="14.00">samples = 1</text>
<text text-anchor="middle" x="685.5" y="-22.8" font-family="Helvetica,sans-Serif" font-size="14.00">value = [0, 1, 0]</text>
<text text-anchor="middle" x="685.5" y="-7.8" font-family="Helvetica,sans-Serif" font-size="14.00">class = versicolor</text>
</g>
<!-- 11&#45;&gt;12 -->
<g id="edge12" class="edge">
<title>11&#45;&gt;12</title>
<path fill="none" stroke="black" d="M685.5,-103.73C685.5,-95.52 685.5,-86.86 685.5,-78.56"/>
<polygon fill="black" stroke="black" points="689,-78.3 685.5,-68.3 682,-78.3 689,-78.3"/>
</g>
<!-- 13 -->
<g id="node14" class="node">
<title>13</title>
<polygon fill="#8139e5" stroke="black" points="905,-68 774,-68 774,0 905,0 905,-68"/>
<text text-anchor="middle" x="839.5" y="-52.8" font-family="Helvetica,sans-Serif" font-size="14.00">gini = 0.0</text>
<text text-anchor="middle" x="839.5" y="-37.8" font-family="Helvetica,sans-Serif" font-size="14.00">samples = 2</text>
<text text-anchor="middle" x="839.5" y="-22.8" font-family="Helvetica,sans-Serif" font-size="14.00">value = [0, 0, 2]</text>
<text text-anchor="middle" x="839.5" y="-7.8" font-family="Helvetica,sans-Serif" font-size="14.00">class = virginica</text>
</g>
<!-- 11&#45;&gt;13 -->
<g id="edge13" class="edge">
<title>11&#45;&gt;13</title>
<path fill="none" stroke="black" d="M742.84,-103.73C756.44,-94.06 770.91,-83.77 784.41,-74.17"/>
<polygon fill="black" stroke="black" points="786.55,-76.95 792.67,-68.3 782.49,-71.24 786.55,-76.95"/>
</g>
</g>
</svg>
