<?xml version="1.0" encoding="UTF-8" standalone="no"?>
<!DOCTYPE svg PUBLIC "-//W3C//DTD SVG 1.1//EN"
 "http://www.w3.org/Graphics/SVG/1.1/DTD/svg11.dtd">
<!-- Generated by graphviz version 2.43.0 (0)
 -->
<!-- Title: Tree Pages: 1 -->
<svg width="428pt" height="552pt"
 viewBox="0.00 0.00 428.00 552.00" xmlns="http://www.w3.org/2000/svg" xmlns:xlink="http://www.w3.org/1999/xlink">
<g id="graph0" class="graph" transform="scale(1 1) rotate(0) translate(4 548)">
<title>Tree</title>
<polygon fill="white" stroke="transparent" points="-4,4 -4,-548 424,-548 424,4 -4,4"/>
<!-- 0 -->
<g id="node1" class="node">
<title>0</title>
<polygon fill="#fdfffd" stroke="black" points="263,-544 63,-544 63,-461 263,-461 263,-544"/>
<text text-anchor="middle" x="163" y="-528.8" font-family="Helvetica,sans-Serif" font-size="14.00">petal length (cm) &lt;= 2.45</text>
<text text-anchor="middle" x="163" y="-513.8" font-family="Helvetica,sans-Serif" font-size="14.00">gini = 0.667</text>
<text text-anchor="middle" x="163" y="-498.8" font-family="Helvetica,sans-Serif" font-size="14.00">samples = 120</text>
<text text-anchor="middle" x="163" y="-483.8" font-family="Helvetica,sans-Serif" font-size="14.00">value = [39, 41, 40]</text>
<text text-anchor="middle" x="163" y="-468.8" font-family="Helvetica,sans-Serif" font-size="14.00">class = versicolor</text>
</g>
<!-- 1 -->
<g id="node2" class="node">
<title>1</title>
<polygon fill="#e58139" stroke="black" points="141,-417.5 1,-417.5 1,-349.5 141,-349.5 141,-417.5"/>
<text text-anchor="middle" x="71" y="-402.3" font-family="Helvetica,sans-Serif" font-size="14.00">gini = 0.0</text>
<text text-anchor="middle" x="71" y="-387.3" font-family="Helvetica,sans-Serif" font-size="14.00">samples = 39</text>
<text text-anchor="middle" x="71" y="-372.3" font-family="Helvetica,sans-Serif" font-size="14.00">value = [39, 0, 0]</text>
<text text-anchor="middle" x="71" y="-357.3" font-family="Helvetica,sans-Serif" font-size="14.00">class = setosa</text>
</g>
<!-- 0&#45;&gt;1 -->
<g id="edge1" class="edge">
<title>0&#45;&gt;1</title>
<path fill="none" stroke="black" d="M131.08,-460.91C122.14,-449.54 112.42,-437.18 103.45,-425.77"/>
<polygon fill="black" stroke="black" points="106.01,-423.36 97.08,-417.67 100.51,-427.69 106.01,-423.36"/>
<text text-anchor="middle" x="94.11" y="-438.79" font-family="Helvetica,sans-Serif" font-size="14.00">True</text>
</g>
<!-- 2 -->
<g id="node3" class="node">
<title>2</title>
<polygon fill="#fafefc" stroke="black" points="353,-425 159,-425 159,-342 353,-342 353,-425"/>
<text text-anchor="middle" x="256" y="-409.8" font-family="Helvetica,sans-Serif" font-size="14.00">petal width (cm) &lt;= 1.65</text>
<text text-anchor="middle" x="256" y="-394.8" font-family="Helvetica,sans-Serif" font-size="14.00">gini = 0.5</text>
<text text-anchor="middle" x="256" y="-379.8" font-family="Helvetica,sans-Serif" font-size="14.00">samples = 81</text>
<text text-anchor="middle" x="256" y="-364.8" font-family="Helvetica,sans-Serif" font-size="14.00">value = [0, 41, 40]</text>
<text text-anchor="middle" x="256" y="-349.8" font-family="Helvetica,sans-Serif" font-size="14.00">class = versicolor</text>
</g>
<!-- 0&#45;&gt;2 -->
<g id="edge2" class="edge">
<title>0&#45;&gt;2</title>
<path fill="none" stroke="black" d="M195.27,-460.91C202.41,-451.92 210.04,-442.32 217.41,-433.05"/>
<polygon fill="black" stroke="black" points="220.31,-435.03 223.79,-425.02 214.83,-430.67 220.31,-435.03"/>
<text text-anchor="middle" x="226.63" y="-446.16" font-family="Helvetica,sans-Serif" font-size="14.00">False</text>
</g>
<!-- 3 -->
<g id="node4" class="node">
<title>3</title>
<polygon fill="#43e687" stroke="black" points="262,-306 62,-306 62,-223 262,-223 262,-306"/>
<text text-anchor="middle" x="162" y="-290.8" font-family="Helvetica,sans-Serif" font-size="14.00">petal length (cm) &lt;= 4.95</text>
<text text-anchor="middle" x="162" y="-275.8" font-family="Helvetica,sans-Serif" font-size="14.00">gini = 0.089</text>
<text text-anchor="middle" x="162" y="-260.8" font-family="Helvetica,sans-Serif" font-size="14.00">samples = 43</text>
<text text-anchor="middle" x="162" y="-245.8" font-family="Helvetica,sans-Serif" font-size="14.00">value = [0, 41, 2]</text>
<text text-anchor="middle" x="162" y="-230.8" font-family="Helvetica,sans-Serif" font-size="14.00">class = versicolor</text>
</g>
<!-- 2&#45;&gt;3 -->
<g id="edge3" class="edge">
<title>2&#45;&gt;3</title>
<path fill="none" stroke="black" d="M223.39,-341.91C216.17,-332.92 208.45,-323.32 201.01,-314.05"/>
<polygon fill="black" stroke="black" points="203.55,-311.62 194.56,-306.02 198.09,-316.01 203.55,-311.62"/>
</g>
<!-- 8 -->
<g id="node9" class="node">
<title>8</title>
<polygon fill="#8139e5" stroke="black" points="420,-298.5 280,-298.5 280,-230.5 420,-230.5 420,-298.5"/>
<text text-anchor="middle" x="350" y="-283.3" font-family="Helvetica,sans-Serif" font-size="14.00">gini = 0.0</text>
<text text-anchor="middle" x="350" y="-268.3" font-family="Helvetica,sans-Serif" font-size="14.00">samples = 38</text>
<text text-anchor="middle" x="350" y="-253.3" font-family="Helvetica,sans-Serif" font-size="14.00">value = [0, 0, 38]</text>
<text text-anchor="middle" x="350" y="-238.3" font-family="Helvetica,sans-Serif" font-size="14.00">class = virginica</text>
</g>
<!-- 2&#45;&gt;8 -->
<g id="edge8" class="edge">
<title>2&#45;&gt;8</title>
<path fill="none" stroke="black" d="M288.61,-341.91C297.74,-330.54 307.68,-318.18 316.84,-306.77"/>
<polygon fill="black" stroke="black" points="319.82,-308.65 323.35,-298.67 314.36,-304.27 319.82,-308.65"/>
</g>
<!-- 4 -->
<g id="node5" class="node">
<title>4</title>
<polygon fill="#39e581" stroke="black" points="140,-179.5 0,-179.5 0,-111.5 140,-111.5 140,-179.5"/>
<text text-anchor="middle" x="70" y="-164.3" font-family="Helvetica,sans-Serif" font-size="14.00">gini = 0.0</text>
<text text-anchor="middle" x="70" y="-149.3" font-family="Helvetica,sans-Serif" font-size="14.00">samples = 40</text>
<text text-anchor="middle" x="70" y="-134.3" font-family="Helvetica,sans-Serif" font-size="14.00">value = [0, 40, 0]</text>
<text text-anchor="middle" x="70" y="-119.3" font-family="Helvetica,sans-Serif" font-size="14.00">class = versicolor</text>
</g>
<!-- 3&#45;&gt;4 -->
<g id="edge4" class="edge">
<title>3&#45;&gt;4</title>
<path fill="none" stroke="black" d="M130.08,-222.91C121.14,-211.54 111.42,-199.18 102.45,-187.77"/>
<polygon fill="black" stroke="black" points="105.01,-185.36 96.08,-179.67 99.51,-189.69 105.01,-185.36"/>
</g>
<!-- 5 -->
<g id="node6" class="node">
<title>5</title>
<polygon fill="#c09cf2" stroke="black" points="352,-187 158,-187 158,-104 352,-104 352,-187"/>
<text text-anchor="middle" x="255" y="-171.8" font-family="Helvetica,sans-Serif" font-size="14.00">petal width (cm) &lt;= 1.55</text>
<text text-anchor="middle" x="255" y="-156.8" font-family="Helvetica,sans-Serif" font-size="14.00">gini = 0.444</text>
<text text-anchor="middle" x="255" y="-141.8" font-family="Helvetica,sans-Serif" font-size="14.00">samples = 3</text>
<text text-anchor="middle" x="255" y="-126.8" font-family="Helvetica,sans-Serif" font-size="14.00">value = [0, 1, 2]</text>
<text text-anchor="middle" x="255" y="-111.8" font-family="Helvetica,sans-Serif" font-size="14.00">class = virginica</text>
</g>
<!-- 3&#45;&gt;5 -->
<g id="edge5" class="edge">
<title>3&#45;&gt;5</title>
<path fill="none" stroke="black" d="M194.27,-222.91C201.41,-213.92 209.04,-204.32 216.41,-195.05"/>
<polygon fill="black" stroke="black" points="219.31,-197.03 222.79,-187.02 213.83,-192.67 219.31,-197.03"/>
</g>
<!-- 6 -->
<g id="node7" class="node">
<title>6</title>
<polygon fill="#8139e5" stroke="black" points="243.5,-68 112.5,-68 112.5,0 243.5,0 243.5,-68"/>
<text text-anchor="middle" x="178" y="-52.8" font-family="Helvetica,sans-Serif" font-size="14.00">gini = 0.0</text>
<text text-anchor="middle" x="178" y="-37.8" font-family="Helvetica,sans-Serif" font-size="14.00">samples = 2</text>
<text text-anchor="middle" x="178" y="-22.8" font-family="Helvetica,sans-Serif" font-size="14.00">value = [0, 0, 2]</text>
<text text-anchor="middle" x="178" y="-7.8" font-family="Helvetica,sans-Serif" font-size="14.00">class = virginica</text>
</g>
<!-- 5&#45;&gt;6 -->
<g id="edge6" class="edge">
<title>5&#45;&gt;6</title>
<path fill="none" stroke="black" d="M226.33,-103.73C220.11,-94.88 213.52,-85.51 207.27,-76.63"/>
<polygon fill="black" stroke="black" points="210.03,-74.47 201.42,-68.3 204.31,-78.49 210.03,-74.47"/>
</g>
<!-- 7 -->
<g id="node8" class="node">
<title>7</title>
<polygon fill="#39e581" stroke="black" points="402,-68 262,-68 262,0 402,0 402,-68"/>
<text text-anchor="middle" x="332" y="-52.8" font-family="Helvetica,sans-Serif" font-size="14.00">gini = 0.0</text>
<text text-anchor="middle" x="332" y="-37.8" font-family="Helvetica,sans-Serif" font-size="14.00">samples = 1</text>
<text text-anchor="middle" x="332" y="-22.8" font-family="Helvetica,sans-Serif" font-size="14.00">value = [0, 1, 0]</text>
<text text-anchor="middle" x="332" y="-7.8" font-family="Helvetica,sans-Serif" font-size="14.00">class = versicolor</text>
</g>
<!-- 5&#45;&gt;7 -->
<g id="edge7" class="edge">
<title>5&#45;&gt;7</title>
<path fill="none" stroke="black" d="M283.67,-103.73C289.89,-94.88 296.48,-85.51 302.73,-76.63"/>
<polygon fill="black" stroke="black" points="305.69,-78.49 308.58,-68.3 299.97,-74.47 305.69,-78.49"/>
</g>
</g>
</svg>
