<?xml version="1.0" encoding="UTF-8" standalone="no"?>
<!DOCTYPE svg PUBLIC "-//W3C//DTD SVG 1.1//EN"
 "http://www.w3.org/Graphics/SVG/1.1/DTD/svg11.dtd">
<!-- Generated by graphviz version 2.43.0 (0)
 -->
<!-- Title: Tree Pages: 1 -->
<svg width="685pt" height="909pt"
 viewBox="0.00 0.00 685.00 909.00" xmlns="http://www.w3.org/2000/svg" xmlns:xlink="http://www.w3.org/1999/xlink">
<g id="graph0" class="graph" transform="scale(1 1) rotate(0) translate(4 905)">
<title>Tree</title>
<polygon fill="white" stroke="transparent" points="-4,4 -4,-905 681,-905 681,4 -4,4"/>
<!-- 0 -->
<g id="node1" class="node">
<title>0</title>
<polygon fill="#fdfffd" stroke="black" points="328,-901 128,-901 128,-818 328,-818 328,-901"/>
<text text-anchor="middle" x="228" y="-885.8" font-family="Helvetica,sans-Serif" font-size="14.00">petal length (cm) &lt;= 2.45</text>
<text text-anchor="middle" x="228" y="-870.8" font-family="Helvetica,sans-Serif" font-size="14.00">gini = 0.667</text>
<text text-anchor="middle" x="228" y="-855.8" font-family="Helvetica,sans-Serif" font-size="14.00">samples = 120</text>
<text text-anchor="middle" x="228" y="-840.8" font-family="Helvetica,sans-Serif" font-size="14.00">value = [39, 41, 40]</text>
<text text-anchor="middle" x="228" y="-825.8" font-family="Helvetica,sans-Serif" font-size="14.00">class = versicolor</text>
</g>
<!-- 1 -->
<g id="node2" class="node">
<title>1</title>
<polygon fill="#e58139" stroke="black" points="204,-774.5 64,-774.5 64,-706.5 204,-706.5 204,-774.5"/>
<text text-anchor="middle" x="134" y="-759.3" font-family="Helvetica,sans-Serif" font-size="14.00">gini = 0.0</text>
<text text-anchor="middle" x="134" y="-744.3" font-family="Helvetica,sans-Serif" font-size="14.00">samples = 39</text>
<text text-anchor="middle" x="134" y="-729.3" font-family="Helvetica,sans-Serif" font-size="14.00">value = [39, 0, 0]</text>
<text text-anchor="middle" x="134" y="-714.3" font-family="Helvetica,sans-Serif" font-size="14.00">class = setosa</text>
</g>
<!-- 0&#45;&gt;1 -->
<g id="edge1" class="edge">
<title>0&#45;&gt;1</title>
<path fill="none" stroke="black" d="M195.39,-817.91C186.26,-806.54 176.32,-794.18 167.16,-782.77"/>
<polygon fill="black" stroke="black" points="169.64,-780.27 160.65,-774.67 164.18,-784.65 169.64,-780.27"/>
<text text-anchor="middle" x="157.94" y="-795.82" font-family="Helvetica,sans-Serif" font-size="14.00">True</text>
</g>
<!-- 2 -->
<g id="node3" class="node">
<title>2</title>
<polygon fill="#fafefc" stroke="black" points="422,-782 222,-782 222,-699 422,-699 422,-782"/>
<text text-anchor="middle" x="322" y="-766.8" font-family="Helvetica,sans-Serif" font-size="14.00">petal length (cm) &lt;= 4.75</text>
<text text-anchor="middle" x="322" y="-751.8" font-family="Helvetica,sans-Serif" font-size="14.00">gini = 0.5</text>
<text text-anchor="middle" x="322" y="-736.8" font-family="Helvetica,sans-Serif" font-size="14.00">samples = 81</text>
<text text-anchor="middle" x="322" y="-721.8" font-family="Helvetica,sans-Serif" font-size="14.00">value = [0, 41, 40]</text>
<text text-anchor="middle" x="322" y="-706.8" font-family="Helvetica,sans-Serif" font-size="14.00">class = versicolor</text>
</g>
<!-- 0&#45;&gt;2 -->
<g id="edge2" class="edge">
<title>0&#45;&gt;2</title>
<path fill="none" stroke="black" d="M260.61,-817.91C267.83,-808.92 275.55,-799.32 282.99,-790.05"/>
<polygon fill="black" stroke="black" points="285.91,-792.01 289.44,-782.02 280.45,-787.62 285.91,-792.01"/>
<text text-anchor="middle" x="292.15" y="-803.17" font-family="Helvetica,sans-Serif" font-size="14.00">False</text>
</g>
<!-- 3 -->
<g id="node4" class="node">
<title>3</title>
<polygon fill="#3ee684" stroke="black" points="312,-663 118,-663 118,-580 312,-580 312,-663"/>
<text text-anchor="middle" x="215" y="-647.8" font-family="Helvetica,sans-Serif" font-size="14.00">petal width (cm) &lt;= 1.65</text>
<text text-anchor="middle" x="215" y="-632.8" font-family="Helvetica,sans-Serif" font-size="14.00">gini = 0.053</text>
<text text-anchor="middle" x="215" y="-617.8" font-family="Helvetica,sans-Serif" font-size="14.00">samples = 37</text>
<text text-anchor="middle" x="215" y="-602.8" font-family="Helvetica,sans-Serif" font-size="14.00">value = [0, 36, 1]</text>
<text text-anchor="middle" x="215" y="-587.8" font-family="Helvetica,sans-Serif" font-size="14.00">class = versicolor</text>
</g>
<!-- 2&#45;&gt;3 -->
<g id="edge3" class="edge">
<title>2&#45;&gt;3</title>
<path fill="none" stroke="black" d="M284.88,-698.91C276.49,-689.74 267.52,-679.93 258.89,-670.49"/>
<polygon fill="black" stroke="black" points="261.39,-668.04 252.06,-663.02 256.22,-672.76 261.39,-668.04"/>
</g>
<!-- 6 -->
<g id="node7" class="node">
<title>6</title>
<polygon fill="#9152e8" stroke="black" points="530,-663 330,-663 330,-580 530,-580 530,-663"/>
<text text-anchor="middle" x="430" y="-647.8" font-family="Helvetica,sans-Serif" font-size="14.00">petal length (cm) &lt;= 5.05</text>
<text text-anchor="middle" x="430" y="-632.8" font-family="Helvetica,sans-Serif" font-size="14.00">gini = 0.201</text>
<text text-anchor="middle" x="430" y="-617.8" font-family="Helvetica,sans-Serif" font-size="14.00">samples = 44</text>
<text text-anchor="middle" x="430" y="-602.8" font-family="Helvetica,sans-Serif" font-size="14.00">value = [0, 5, 39]</text>
<text text-anchor="middle" x="430" y="-587.8" font-family="Helvetica,sans-Serif" font-size="14.00">class = virginica</text>
</g>
<!-- 2&#45;&gt;6 -->
<g id="edge6" class="edge">
<title>2&#45;&gt;6</title>
<path fill="none" stroke="black" d="M359.47,-698.91C367.93,-689.74 376.99,-679.93 385.7,-670.49"/>
<polygon fill="black" stroke="black" points="388.39,-672.74 392.6,-663.02 383.24,-667.99 388.39,-672.74"/>
</g>
<!-- 4 -->
<g id="node5" class="node">
<title>4</title>
<polygon fill="#39e581" stroke="black" points="140,-536.5 0,-536.5 0,-468.5 140,-468.5 140,-536.5"/>
<text text-anchor="middle" x="70" y="-521.3" font-family="Helvetica,sans-Serif" font-size="14.00">gini = 0.0</text>
<text text-anchor="middle" x="70" y="-506.3" font-family="Helvetica,sans-Serif" font-size="14.00">samples = 36</text>
<text text-anchor="middle" x="70" y="-491.3" font-family="Helvetica,sans-Serif" font-size="14.00">value = [0, 36, 0]</text>
<text text-anchor="middle" x="70" y="-476.3" font-family="Helvetica,sans-Serif" font-size="14.00">class = versicolor</text>
</g>
<!-- 3&#45;&gt;4 -->
<g id="edge4" class="edge">
<title>3&#45;&gt;4</title>
<path fill="none" stroke="black" d="M164.69,-579.91C149.92,-567.99 133.79,-554.98 119.1,-543.12"/>
<polygon fill="black" stroke="black" points="121.08,-540.22 111.1,-536.67 116.69,-545.67 121.08,-540.22"/>
</g>
<!-- 5 -->
<g id="node6" class="node">
<title>5</title>
<polygon fill="#8139e5" stroke="black" points="289.5,-536.5 158.5,-536.5 158.5,-468.5 289.5,-468.5 289.5,-536.5"/>
<text text-anchor="middle" x="224" y="-521.3" font-family="Helvetica,sans-Serif" font-size="14.00">gini = 0.0</text>
<text text-anchor="middle" x="224" y="-506.3" font-family="Helvetica,sans-Serif" font-size="14.00">samples = 1</text>
<text text-anchor="middle" x="224" y="-491.3" font-family="Helvetica,sans-Serif" font-size="14.00">value = [0, 0, 1]</text>
<text text-anchor="middle" x="224" y="-476.3" font-family="Helvetica,sans-Serif" font-size="14.00">class = virginica</text>
</g>
<!-- 3&#45;&gt;5 -->
<g id="edge5" class="edge">
<title>3&#45;&gt;5</title>
<path fill="none" stroke="black" d="M218.12,-579.91C218.95,-569.2 219.84,-557.62 220.67,-546.78"/>
<polygon fill="black" stroke="black" points="224.17,-546.91 221.45,-536.67 217.19,-546.37 224.17,-546.91"/>
</g>
<!-- 7 -->
<g id="node8" class="node">
<title>7</title>
<polygon fill="#dbc6f8" stroke="black" points="519,-544 325,-544 325,-461 519,-461 519,-544"/>
<text text-anchor="middle" x="422" y="-528.8" font-family="Helvetica,sans-Serif" font-size="14.00">sepal length (cm) &lt;= 6.5</text>
<text text-anchor="middle" x="422" y="-513.8" font-family="Helvetica,sans-Serif" font-size="14.00">gini = 0.486</text>
<text text-anchor="middle" x="422" y="-498.8" font-family="Helvetica,sans-Serif" font-size="14.00">samples = 12</text>
<text text-anchor="middle" x="422" y="-483.8" font-family="Helvetica,sans-Serif" font-size="14.00">value = [0, 5, 7]</text>
<text text-anchor="middle" x="422" y="-468.8" font-family="Helvetica,sans-Serif" font-size="14.00">class = virginica</text>
</g>
<!-- 6&#45;&gt;7 -->
<g id="edge7" class="edge">
<title>6&#45;&gt;7</title>
<path fill="none" stroke="black" d="M427.22,-579.91C426.65,-571.56 426.05,-562.67 425.45,-554.02"/>
<polygon fill="black" stroke="black" points="428.94,-553.76 424.77,-544.02 421.96,-554.24 428.94,-553.76"/>
</g>
<!-- 16 -->
<g id="node17" class="node">
<title>16</title>
<polygon fill="#8139e5" stroke="black" points="677,-536.5 537,-536.5 537,-468.5 677,-468.5 677,-536.5"/>
<text text-anchor="middle" x="607" y="-521.3" font-family="Helvetica,sans-Serif" font-size="14.00">gini = 0.0</text>
<text text-anchor="middle" x="607" y="-506.3" font-family="Helvetica,sans-Serif" font-size="14.00">samples = 32</text>
<text text-anchor="middle" x="607" y="-491.3" font-family="Helvetica,sans-Serif" font-size="14.00">value = [0, 0, 32]</text>
<text text-anchor="middle" x="607" y="-476.3" font-family="Helvetica,sans-Serif" font-size="14.00">class = virginica</text>
</g>
<!-- 6&#45;&gt;16 -->
<g id="edge16" class="edge">
<title>6&#45;&gt;16</title>
<path fill="none" stroke="black" d="M491.41,-579.91C509.77,-567.77 529.86,-554.49 548.06,-542.46"/>
<polygon fill="black" stroke="black" points="550.41,-545.1 556.82,-536.67 546.55,-539.26 550.41,-545.1"/>
</g>
<!-- 8 -->
<g id="node9" class="node">
<title>8</title>
<polygon fill="#a572ec" stroke="black" points="425,-425 237,-425 237,-342 425,-342 425,-425"/>
<text text-anchor="middle" x="331" y="-409.8" font-family="Helvetica,sans-Serif" font-size="14.00">sepal width (cm) &lt;= 3.1</text>
<text text-anchor="middle" x="331" y="-394.8" font-family="Helvetica,sans-Serif" font-size="14.00">gini = 0.346</text>
<text text-anchor="middle" x="331" y="-379.8" font-family="Helvetica,sans-Serif" font-size="14.00">samples = 9</text>
<text text-anchor="middle" x="331" y="-364.8" font-family="Helvetica,sans-Serif" font-size="14.00">value = [0, 2, 7]</text>
<text text-anchor="middle" x="331" y="-349.8" font-family="Helvetica,sans-Serif" font-size="14.00">class = virginica</text>
</g>
<!-- 7&#45;&gt;8 -->
<g id="edge8" class="edge">
<title>7&#45;&gt;8</title>
<path fill="none" stroke="black" d="M390.43,-460.91C383.44,-451.92 375.97,-442.32 368.76,-433.05"/>
<polygon fill="black" stroke="black" points="371.42,-430.77 362.52,-425.02 365.89,-435.06 371.42,-430.77"/>
</g>
<!-- 15 -->
<g id="node16" class="node">
<title>15</title>
<polygon fill="#39e581" stroke="black" points="583,-417.5 443,-417.5 443,-349.5 583,-349.5 583,-417.5"/>
<text text-anchor="middle" x="513" y="-402.3" font-family="Helvetica,sans-Serif" font-size="14.00">gini = 0.0</text>
<text text-anchor="middle" x="513" y="-387.3" font-family="Helvetica,sans-Serif" font-size="14.00">samples = 3</text>
<text text-anchor="middle" x="513" y="-372.3" font-family="Helvetica,sans-Serif" font-size="14.00">value = [0, 3, 0]</text>
<text text-anchor="middle" x="513" y="-357.3" font-family="Helvetica,sans-Serif" font-size="14.00">class = versicolor</text>
</g>
<!-- 7&#45;&gt;15 -->
<g id="edge15" class="edge">
<title>7&#45;&gt;15</title>
<path fill="none" stroke="black" d="M453.57,-460.91C462.41,-449.54 472.03,-437.18 480.9,-425.77"/>
<polygon fill="black" stroke="black" points="483.83,-427.71 487.2,-417.67 478.3,-423.41 483.83,-427.71"/>
</g>
<!-- 9 -->
<g id="node10" class="node">
<title>9</title>
<polygon fill="#9355e9" stroke="black" points="337.5,-306 134.5,-306 134.5,-223 337.5,-223 337.5,-306"/>
<text text-anchor="middle" x="236" y="-290.8" font-family="Helvetica,sans-Serif" font-size="14.00">sepal length (cm) &lt;= 6.25</text>
<text text-anchor="middle" x="236" y="-275.8" font-family="Helvetica,sans-Serif" font-size="14.00">gini = 0.219</text>
<text text-anchor="middle" x="236" y="-260.8" font-family="Helvetica,sans-Serif" font-size="14.00">samples = 8</text>
<text text-anchor="middle" x="236" y="-245.8" font-family="Helvetica,sans-Serif" font-size="14.00">value = [0, 1, 7]</text>
<text text-anchor="middle" x="236" y="-230.8" font-family="Helvetica,sans-Serif" font-size="14.00">class = virginica</text>
</g>
<!-- 8&#45;&gt;9 -->
<g id="edge9" class="edge">
<title>8&#45;&gt;9</title>
<path fill="none" stroke="black" d="M298.04,-341.91C290.75,-332.92 282.94,-323.32 275.42,-314.05"/>
<polygon fill="black" stroke="black" points="277.92,-311.58 268.9,-306.02 272.49,-315.99 277.92,-311.58"/>
</g>
<!-- 14 -->
<g id="node15" class="node">
<title>14</title>
<polygon fill="#39e581" stroke="black" points="496,-298.5 356,-298.5 356,-230.5 496,-230.5 496,-298.5"/>
<text text-anchor="middle" x="426" y="-283.3" font-family="Helvetica,sans-Serif" font-size="14.00">gini = 0.0</text>
<text text-anchor="middle" x="426" y="-268.3" font-family="Helvetica,sans-Serif" font-size="14.00">samples = 1</text>
<text text-anchor="middle" x="426" y="-253.3" font-family="Helvetica,sans-Serif" font-size="14.00">value = [0, 1, 0]</text>
<text text-anchor="middle" x="426" y="-238.3" font-family="Helvetica,sans-Serif" font-size="14.00">class = versicolor</text>
</g>
<!-- 8&#45;&gt;14 -->
<g id="edge14" class="edge">
<title>8&#45;&gt;14</title>
<path fill="none" stroke="black" d="M363.96,-341.91C373.28,-330.43 383.42,-317.94 392.76,-306.44"/>
<polygon fill="black" stroke="black" points="395.48,-308.64 399.07,-298.67 390.05,-304.22 395.48,-308.64"/>
</g>
<!-- 10 -->
<g id="node11" class="node">
<title>10</title>
<polygon fill="#8139e5" stroke="black" points="212.5,-179.5 81.5,-179.5 81.5,-111.5 212.5,-111.5 212.5,-179.5"/>
<text text-anchor="middle" x="147" y="-164.3" font-family="Helvetica,sans-Serif" font-size="14.00">gini = 0.0</text>
<text text-anchor="middle" x="147" y="-149.3" font-family="Helvetica,sans-Serif" font-size="14.00">samples = 6</text>
<text text-anchor="middle" x="147" y="-134.3" font-family="Helvetica,sans-Serif" font-size="14.00">value = [0, 0, 6]</text>
<text text-anchor="middle" x="147" y="-119.3" font-family="Helvetica,sans-Serif" font-size="14.00">class = virginica</text>
</g>
<!-- 9&#45;&gt;10 -->
<g id="edge10" class="edge">
<title>9&#45;&gt;10</title>
<path fill="none" stroke="black" d="M205.12,-222.91C196.48,-211.54 187.07,-199.18 178.4,-187.77"/>
<polygon fill="black" stroke="black" points="181.07,-185.51 172.23,-179.67 175.5,-189.74 181.07,-185.51"/>
</g>
<!-- 11 -->
<g id="node12" class="node">
<title>11</title>
<polygon fill="#ffffff" stroke="black" points="419,-187 231,-187 231,-104 419,-104 419,-187"/>
<text text-anchor="middle" x="325" y="-171.8" font-family="Helvetica,sans-Serif" font-size="14.00">sepal width (cm) &lt;= 2.6</text>
<text text-anchor="middle" x="325" y="-156.8" font-family="Helvetica,sans-Serif" font-size="14.00">gini = 0.5</text>
<text text-anchor="middle" x="325" y="-141.8" font-family="Helvetica,sans-Serif" font-size="14.00">samples = 2</text>
<text text-anchor="middle" x="325" y="-126.8" font-family="Helvetica,sans-Serif" font-size="14.00">value = [0, 1, 1]</text>
<text text-anchor="middle" x="325" y="-111.8" font-family="Helvetica,sans-Serif" font-size="14.00">class = versicolor</text>
</g>
<!-- 9&#45;&gt;11 -->
<g id="edge11" class="edge">
<title>9&#45;&gt;11</title>
<path fill="none" stroke="black" d="M266.88,-222.91C273.71,-213.92 281.02,-204.32 288.07,-195.05"/>
<polygon fill="black" stroke="black" points="290.91,-197.1 294.18,-187.02 285.34,-192.86 290.91,-197.1"/>
</g>
<!-- 12 -->
<g id="node13" class="node">
<title>12</title>
<polygon fill="#39e581" stroke="black" points="318,-68 178,-68 178,0 318,0 318,-68"/>
<text text-anchor="middle" x="248" y="-52.8" font-family="Helvetica,sans-Serif" font-size="14.00">gini = 0.0</text>
<text text-anchor="middle" x="248" y="-37.8" font-family="Helvetica,sans-Serif" font-size="14.00">samples = 1</text>
<text text-anchor="middle" x="248" y="-22.8" font-family="Helvetica,sans-Serif" font-size="14.00">value = [0, 1, 0]</text>
<text text-anchor="middle" x="248" y="-7.8" font-family="Helvetica,sans-Serif" font-size="14.00">class = versicolor</text>
</g>
<!-- 11&#45;&gt;12 -->
<g id="edge12" class="edge">
<title>11&#45;&gt;12</title>
<path fill="none" stroke="black" d="M296.33,-103.73C290.11,-94.88 283.52,-85.51 277.27,-76.63"/>
<polygon fill="black" stroke="black" points="280.03,-74.47 271.42,-68.3 274.31,-78.49 280.03,-74.47"/>
</g>
<!-- 13 -->
<g id="node14" class="node">
<title>13</title>
<polygon fill="#8139e5" stroke="black" points="467.5,-68 336.5,-68 336.5,0 467.5,0 467.5,-68"/>
<text text-anchor="middle" x="402" y="-52.8" font-family="Helvetica,sans-Serif" font-size="14.00">gini = 0.0</text>
<text text-anchor="middle" x="402" y="-37.8" font-family="Helvetica,sans-Serif" font-size="14.00">samples = 1</text>
<text text-anchor="middle" x="402" y="-22.8" font-family="Helvetica,sans-Serif" font-size="14.00">value = [0, 0, 1]</text>
<text text-anchor="middle" x="402" y="-7.8" font-family="Helvetica,sans-Serif" font-size="14.00">class = virginica</text>
</g>
<!-- 11&#45;&gt;13 -->
<g id="edge13" class="edge">
<title>11&#45;&gt;13</title>
<path fill="none" stroke="black" d="M353.67,-103.73C359.89,-94.88 366.48,-85.51 372.73,-76.63"/>
<polygon fill="black" stroke="black" points="375.69,-78.49 378.58,-68.3 369.97,-74.47 375.69,-78.49"/>
</g>
</g>
</svg>
